<svg version="1.2" baseProfile="tiny-ps" xmlns="http://www.w3.org/2000/svg" viewBox="0 0 83 78" width="83" height="78">
	<title>icon-access-anywhere-svg</title>
	<style>
		tspan { white-space:pre }
		.shp0 { fill: none;stroke: #62e0d9;stroke-linecap:round;stroke-linejoin:round;stroke-width: 1.3 } 
		.shp1 { fill: none;stroke: #62e0d9;stroke-linejoin:round;stroke-width: 1.3 } 
	</style>
	<g id="Layer">
	</g>
	<path id="Layer" class="shp0" d="M31.48 45.08C30.74 45.08 30 44.8 29.44 44.24L17.07 31.89L21.15 27.83L31.48 38.14L57.29 12.37L61.36 16.44L33.51 44.24C33.38 44.37 33.23 44.49 33.08 44.6C32.92 44.7 32.75 44.79 32.58 44.86C32.4 44.93 32.22 44.99 32.04 45.03C31.85 45.06 31.66 45.08 31.48 45.08L31.48 45.08ZM53.37 16.32C47.93 10.43 40.14 6.74 31.47 6.74C15.04 6.74 1.71 20.04 1.71 36.45C1.71 52.87 15.04 66.17 31.48 66.17C47.92 66.17 61.24 52.87 61.24 36.45C61.24 30.76 59.64 25.45 56.87 20.93L53.37 16.32L53.37 16.32ZM49.27 20.37C48.15 19.13 46.9 18.01 45.55 17.03C44.19 16.05 42.74 15.22 41.21 14.54C39.68 13.86 38.08 13.35 36.45 13C34.81 12.66 33.15 12.49 31.47 12.49C18.22 12.49 7.47 23.22 7.47 36.45C7.47 49.69 18.22 60.42 31.47 60.42C44.73 60.42 55.48 49.69 55.48 36.45C55.48 32.36 54.45 28.51 52.64 25.14L49.27 20.37L49.27 20.37ZM13.23 37.41L11.31 37.41L13.23 37.41L13.23 37.41ZM32.44 16.32L32.44 18.24L32.44 16.32L32.44 16.32ZM32.44 54.67L32.44 56.59L32.44 54.67ZM51.64 37.41L49.72 37.41L51.64 37.41Z" />
	<path id="Layer" class="shp1" d="M52.74 43.88C52.74 46.23 50.83 48.13 48.49 48.13C47.93 48.13 47.38 48.02 46.86 47.81C46.34 47.59 45.88 47.28 45.48 46.89C45.09 46.49 44.77 46.02 44.56 45.51C44.34 44.99 44.23 44.44 44.23 43.88C44.23 41.54 46.14 39.64 48.49 39.64C49.04 39.64 49.6 39.75 50.11 39.96C50.63 40.17 51.1 40.49 51.49 40.88C51.89 41.27 52.2 41.74 52.41 42.26C52.63 42.77 52.74 43.33 52.74 43.88Z" />
	<path id="Layer" class="shp0" d="M48.49 48.13C46.69 48.13 45.07 48.68 43.91 49.22C43.64 49.35 43.39 49.51 43.17 49.71C42.94 49.91 42.75 50.14 42.59 50.39C42.43 50.64 42.31 50.92 42.23 51.21C42.15 51.49 42.11 51.79 42.11 52.09L42.11 58.74C42.11 59.02 42.16 59.3 42.27 59.56C42.38 59.81 42.53 60.05 42.73 60.24C42.93 60.44 43.16 60.6 43.42 60.7C43.68 60.81 43.95 60.87 44.23 60.87L44.23 69.36C44.23 69.63 44.29 69.91 44.4 70.17C44.5 70.43 44.66 70.66 44.86 70.86C45.05 71.05 45.29 71.21 45.55 71.32C45.8 71.42 46.08 71.48 46.36 71.48L50.61 71.48C50.89 71.48 51.17 71.42 51.43 71.32C51.68 71.21 51.92 71.05 52.12 70.86C52.31 70.66 52.47 70.43 52.58 70.17C52.68 69.91 52.74 69.63 52.74 69.36L52.74 60.86C53.02 60.86 53.29 60.81 53.55 60.7C53.81 60.6 54.04 60.44 54.24 60.24C54.44 60.05 54.59 59.81 54.7 59.55C54.81 59.3 54.86 59.02 54.86 58.74L54.86 52.09C54.87 51.79 54.83 51.49 54.74 51.2C54.66 50.92 54.54 50.64 54.38 50.39C54.22 50.14 54.03 49.91 53.8 49.71C53.58 49.51 53.33 49.35 53.06 49.22C51.9 48.68 50.28 48.13 48.49 48.13L48.49 48.13Z" />
	<path id="Layer" class="shp1" d="M65.5 43.88C65.5 46.23 63.59 48.13 61.24 48.13C60.69 48.13 60.13 48.02 59.62 47.81C59.1 47.59 58.63 47.28 58.24 46.89C57.84 46.49 57.53 46.02 57.32 45.51C57.1 44.99 56.99 44.44 56.99 43.88C56.99 41.54 58.9 39.64 61.24 39.64C61.8 39.64 62.35 39.75 62.87 39.96C63.39 40.17 63.85 40.49 64.25 40.88C64.64 41.27 64.96 41.74 65.17 42.26C65.39 42.77 65.5 43.33 65.5 43.88L65.5 43.88Z" />
	<path id="Layer" class="shp0" d="M61.24 48.13C59.45 48.13 57.83 48.68 56.67 49.22C56.4 49.35 56.15 49.51 55.93 49.71C55.7 49.91 55.51 50.14 55.35 50.39C55.19 50.64 55.07 50.92 54.99 51.21C54.9 51.49 54.86 51.79 54.86 52.09L54.86 58.74C54.86 59.02 54.92 59.3 55.03 59.56C55.13 59.81 55.29 60.05 55.49 60.24C55.69 60.44 55.92 60.6 56.18 60.7C56.44 60.81 56.71 60.87 56.99 60.87L56.99 69.36C56.99 69.63 57.05 69.91 57.15 70.17C57.26 70.43 57.42 70.66 57.62 70.86C57.81 71.05 58.05 71.21 58.3 71.32C58.56 71.42 58.84 71.48 59.12 71.48L63.37 71.48C63.65 71.48 63.93 71.42 64.18 71.32C64.44 71.21 64.68 71.05 64.87 70.86C65.07 70.66 65.23 70.43 65.33 70.17C65.44 69.91 65.5 69.63 65.5 69.36L65.5 60.86C65.77 60.86 66.05 60.81 66.31 60.7C66.57 60.6 66.8 60.44 67 60.24C67.2 60.05 67.35 59.81 67.46 59.56C67.57 59.3 67.62 59.02 67.62 58.74L67.62 52.09C67.62 51.79 67.58 51.49 67.5 51.2C67.42 50.92 67.3 50.64 67.14 50.39C66.98 50.14 66.79 49.91 66.56 49.71C66.34 49.51 66.09 49.35 65.82 49.22C64.66 48.68 63.04 48.13 61.24 48.13L61.24 48.13Z" />
	<path id="Layer" class="shp1" d="M78.25 43.88C78.25 46.23 76.35 48.13 74 48.13C73.44 48.13 72.89 48.02 72.37 47.81C71.86 47.59 71.39 47.28 71 46.89C70.6 46.49 70.29 46.02 70.07 45.51C69.86 44.99 69.75 44.44 69.75 43.88C69.75 41.54 71.65 39.64 74 39.64C74.56 39.64 75.11 39.75 75.63 39.96C76.14 40.17 76.61 40.49 77.01 40.88C77.4 41.27 77.72 41.74 77.93 42.26C78.14 42.77 78.25 43.33 78.25 43.88Z" />
	<path id="Layer" class="shp0" d="M74 48.13C72.21 48.13 70.59 48.68 69.43 49.22C69.16 49.35 68.91 49.51 68.68 49.71C68.46 49.91 68.27 50.14 68.11 50.39C67.95 50.64 67.83 50.92 67.74 51.21C67.66 51.49 67.62 51.79 67.62 52.09L67.62 58.74C67.62 59.02 67.68 59.3 67.78 59.56C67.89 59.81 68.05 60.05 68.25 60.24C68.44 60.44 68.68 60.6 68.94 60.7C69.19 60.81 69.47 60.87 69.75 60.87L69.75 69.36C69.75 69.63 69.8 69.91 69.91 70.17C70.02 70.43 70.18 70.66 70.37 70.86C70.57 71.05 70.8 71.21 71.06 71.32C71.32 71.42 71.6 71.48 71.87 71.48L76.13 71.48C76.41 71.48 76.68 71.42 76.94 71.32C77.2 71.21 77.43 71.05 77.63 70.86C77.83 70.66 77.98 70.43 78.09 70.17C78.2 69.91 78.25 69.63 78.25 69.36L78.25 60.86C78.53 60.86 78.81 60.81 79.07 60.7C79.32 60.6 79.56 60.44 79.76 60.24C79.95 60.05 80.11 59.81 80.22 59.55C80.32 59.3 80.38 59.02 80.38 58.74L80.38 52.09C80.38 51.79 80.34 51.49 80.26 51.2C80.18 50.92 80.05 50.64 79.9 50.39C79.74 50.14 79.54 49.91 79.32 49.71C79.1 49.51 78.85 49.35 78.58 49.22C77.42 48.68 75.8 48.13 74 48.13L74 48.13Z" />
</svg>