<svg version="1.2" baseProfile="tiny-ps" xmlns="http://www.w3.org/2000/svg" viewBox="0 0 83 78" width="83" height="78">
	<title>icon-access-anywhere-svg</title>
	<style>
		tspan { white-space:pre }
		.shp0 { fill: none;stroke: #62e0d9;stroke-width: 3.064 } 
	</style>
	<path id="Layer" class="shp0" d="M48.85 31.34L37.82 42.58L29.71 34.31L25.65 38.45L37.82 50.86L56.4 31.91L52.34 27.77L48.85 31.34Z" />
	<path id="Layer" class="shp0" d="M60.76 8.21C55.94 8.21 51.15 7.19 46.8 5.07C44.72 4.07 42.58 2.79 40.74 1.19C38.89 2.79 36.76 4.07 34.68 5.07C30.32 7.19 25.53 8.21 20.72 8.21L11.17 8.21L11.17 44.81C11.17 51.22 13.71 57.38 18.23 61.84C24.86 68.38 40.74 76.87 40.74 76.87C40.74 76.87 56.62 68.38 63.25 61.84C67.77 57.38 70.31 51.22 70.31 44.81L70.31 8.21L60.76 8.21Z" />
	<path id="Layer" class="shp0" d="M62.58 21.45L62.58 45.11C62.58 49.39 60.87 53.53 57.88 56.49C53.72 60.59 44.24 66.2 40.74 68.21C37.24 66.19 27.75 60.58 23.59 56.48C20.61 53.53 18.89 49.39 18.89 45.11L18.89 16.39L20.72 16.39C26.76 16.39 32.74 15.04 38 12.49C38.23 12.38 38.46 12.26 38.69 12.14C38.92 12.03 39.15 11.91 39.38 11.79C39.61 11.67 39.84 11.54 40.06 11.42C40.29 11.29 40.52 11.17 40.74 11.04C41.62 11.55 42.54 12.04 43.5 12.5C48.74 15.05 54.71 16.39 60.76 16.39L62.58 16.39L62.58 21.45Z" />
</svg>