<svg version="1.2" baseProfile="tiny-ps" xmlns="http://www.w3.org/2000/svg" viewBox="0 0 83 78" width="83" height="78">
	<title>icon-access-anywhere-svg</title>
	<style>
		tspan { white-space:pre }
		.shp0 { fill: none;stroke: #62e0d9;stroke-linecap:round;stroke-linejoin:round;stroke-width: 1.405 } 
		.shp1 { fill: #62e0d9 } 
		.shp2 { fill: none;stroke: #ffffff;stroke-linejoin:round;stroke-width: 0.803 } 
		.shp3 { fill: none;stroke: #ffffff;stroke-linecap:round;stroke-linejoin:round;stroke-width: 0.803 } 
		.shp4 { fill: none;stroke: #ffffff;stroke-linecap:round;stroke-linejoin:round;stroke-width: 0.65 } 
	</style>
	<g id="Layer">
		<path id="Layer" class="shp0" d="M77.26 66.26C79.55 66.26 81.4 64.52 81.4 62.36L81.4 19.48C81.4 18.05 80.16 16.88 78.64 16.88L77.26 66.26L77.26 66.26ZM10.9 22.13L10.9 59.77C10.9 63.35 13.82 66.26 17.41 66.26L77.26 66.26C76.74 66.26 76.24 66.16 75.76 65.96C75.29 65.77 74.86 65.48 74.5 65.12C74.14 64.76 73.85 64.33 73.65 63.86C73.46 63.38 73.35 62.88 73.35 62.37L73.35 14.34C73.35 13.99 73.29 13.66 73.15 13.34C73.02 13.03 72.83 12.74 72.59 12.5C72.35 12.26 72.06 12.07 71.75 11.94C71.43 11.81 71.09 11.74 70.75 11.74L55.14 11.74L49.93 19.53L13.51 19.53C13.16 19.53 12.83 19.6 12.51 19.73C12.2 19.86 11.91 20.05 11.67 20.29C11.43 20.53 11.23 20.82 11.1 21.13C10.97 21.45 10.9 21.78 10.9 22.13Z" />
		<path id="Layer" fill-rule="evenodd" class="shp1" d="M42.67 53.56L42.67 61.98C42.67 63.31 41.62 64.39 40.32 64.39L22.66 64.39C21.36 64.39 20.3 63.31 20.3 61.98L20.3 36.71C20.3 35.38 21.36 34.3 22.66 34.3L35.81 34.3C35.96 34.3 36.12 34.32 36.27 34.35C36.42 34.38 36.57 34.42 36.71 34.48C36.86 34.54 36.99 34.62 37.12 34.71C37.25 34.79 37.37 34.89 37.47 35.01L41.98 39.61C42.42 40.07 42.67 40.68 42.67 41.32L42.67 41.52M35.61 36.71L35.61 39.72C35.61 40.71 36.4 41.52 37.37 41.52L40.32 41.52L35.61 36.71Z" />
		<path id="Layer" class="shp2" d="M28.54 57.17L28.54 60.78L32.08 60.78L43.26 49.35L39.73 45.74L28.54 57.17L28.54 57.17ZM43.26 49.35L44.51 48.07C44.67 47.9 44.8 47.7 44.89 47.48C44.98 47.26 45.03 47.03 45.03 46.79C45.03 46.56 44.98 46.32 44.89 46.1C44.8 45.88 44.67 45.68 44.51 45.52L43.47 44.46C43.31 44.29 43.12 44.16 42.9 44.07C42.69 43.98 42.46 43.93 42.23 43.93C41.99 43.93 41.76 43.98 41.55 44.07C41.33 44.16 41.14 44.29 40.98 44.46L39.73 45.74L43.26 49.35Z" />
		<path id="Layer" class="shp3" d="M25.01 46.34L36.78 46.34M25.01 49.95L35.61 49.95M25.01 53.56L32.08 53.56" />
		<g id="Layer">
			<path id="Layer" class="shp4" d="M21.98 65.94L15.36 58.93L12.6 61.85L8.73 57.76L1 65.94" />
		</g>
	</g>
</svg>